<svg xmlns="http://www.w3.org/2000/svg" viewBox="0 0 64 64" role="img" aria-labelledby="title">
  <title>Old iron lock</title>
  <defs>
    <linearGradient id="iron-grad" x1="0" y1="0" x2="1" y2="1">
      <stop offset="0%" stop-color="#4d4d4d" />
      <stop offset="100%" stop-color="#1f1f1f" />
    </linearGradient>
    <radialGradient id="shine" cx="30%" cy="20%" r="60%">
      <stop offset="0%" stop-color="#ffffff" stop-opacity="0.35" />
      <stop offset="100%" stop-color="#ffffff" stop-opacity="0" />
    </radialGradient>
  </defs>
  <rect x="16" y="24" width="32" height="28" rx="6" fill="url(#iron-grad)" stroke="#232323" stroke-width="2" />
  <path d="M22 34h20v14H22z" fill="#111" opacity="0.18" />
  <path d="M26 40h12v8H26z" fill="#262626" />
  <circle cx="32" cy="44" r="4" fill="#1f1f1f" stroke="#545454" stroke-width="1.5" />
  <circle cx="32" cy="44" r="2" fill="#a7a7a7" />
  <path d="M22 26c0-6 4-10 10-10s10 4 10 10" fill="none" stroke="#3a3a3a" stroke-width="4" />
  <path d="M26 26c0-4 3-6 6-6s6 2 6 6" fill="none" stroke="#5d5d5d" stroke-width="3" />
  <ellipse cx="32" cy="30" rx="10" ry="3" fill="url(#shine)" opacity="0.4" />
  <path d="M20 36l4 2M44 36l-4 2" stroke="#222" stroke-width="2" stroke-linecap="round" opacity="0.7" />
</svg>
